<mxfile host="Electron" modified="2023-12-07T08:57:09.048Z" agent="Mozilla/5.0 (X11; Linux x86_64) AppleWebKit/537.36 (KHTML, like Gecko) draw.io/22.1.2 Chrome/114.0.5735.289 Electron/25.9.4 Safari/537.36" etag="BV6ze1koYCpaksSSxjGB" version="22.1.2" type="device">
  <diagram name="Page-1" id="EvFv5888yp59UsVNFRb_">
    <mxGraphModel dx="1427" dy="1475" grid="1" gridSize="10" guides="1" tooltips="1" connect="1" arrows="1" fold="1" page="1" pageScale="1" pageWidth="1169" pageHeight="827" math="0" shadow="0">
      <root>
        <mxCell id="0" />
        <mxCell id="1" parent="0" />
        <mxCell id="_-hbQWMdfSy7evoIjrr0-4" value="Register" style="ellipse;whiteSpace=wrap;html=1;" vertex="1" parent="1">
          <mxGeometry x="530" y="190" width="140" height="70" as="geometry" />
        </mxCell>
        <mxCell id="_-hbQWMdfSy7evoIjrr0-5" value="As a Driver" style="ellipse;whiteSpace=wrap;html=1;" vertex="1" parent="1">
          <mxGeometry x="760" y="290" width="140" height="70" as="geometry" />
        </mxCell>
        <mxCell id="_-hbQWMdfSy7evoIjrr0-6" value="Set Availabilty" style="ellipse;whiteSpace=wrap;html=1;" vertex="1" parent="1">
          <mxGeometry x="760" y="490" width="140" height="70" as="geometry" />
        </mxCell>
        <mxCell id="_-hbQWMdfSy7evoIjrr0-7" value="Manage Routes" style="ellipse;whiteSpace=wrap;html=1;" vertex="1" parent="1">
          <mxGeometry x="760" y="390" width="140" height="70" as="geometry" />
        </mxCell>
        <mxCell id="_-hbQWMdfSy7evoIjrr0-8" value="Respond to Requests" style="ellipse;whiteSpace=wrap;html=1;" vertex="1" parent="1">
          <mxGeometry x="760" y="590" width="140" height="70" as="geometry" />
        </mxCell>
        <mxCell id="_-hbQWMdfSy7evoIjrr0-9" value="Driver" style="shape=umlActor;verticalLabelPosition=bottom;verticalAlign=top;html=1;" vertex="1" parent="1">
          <mxGeometry x="1030" y="440" width="30" height="60" as="geometry" />
        </mxCell>
        <mxCell id="_-hbQWMdfSy7evoIjrr0-12" value="" style="endArrow=none;html=1;rounded=0;entryX=0;entryY=0.3333333333333333;entryDx=0;entryDy=0;entryPerimeter=0;" edge="1" parent="1" source="_-hbQWMdfSy7evoIjrr0-5" target="_-hbQWMdfSy7evoIjrr0-9">
          <mxGeometry width="50" height="50" relative="1" as="geometry">
            <mxPoint x="670" y="480" as="sourcePoint" />
            <mxPoint x="720" y="430" as="targetPoint" />
          </mxGeometry>
        </mxCell>
        <mxCell id="_-hbQWMdfSy7evoIjrr0-13" value="" style="endArrow=none;html=1;rounded=0;entryX=0;entryY=0.3333333333333333;entryDx=0;entryDy=0;entryPerimeter=0;" edge="1" parent="1" source="_-hbQWMdfSy7evoIjrr0-7" target="_-hbQWMdfSy7evoIjrr0-9">
          <mxGeometry width="50" height="50" relative="1" as="geometry">
            <mxPoint x="670" y="480" as="sourcePoint" />
            <mxPoint x="970" y="450" as="targetPoint" />
          </mxGeometry>
        </mxCell>
        <mxCell id="_-hbQWMdfSy7evoIjrr0-14" value="" style="endArrow=none;html=1;rounded=0;entryX=0;entryY=0.3333333333333333;entryDx=0;entryDy=0;entryPerimeter=0;" edge="1" parent="1" source="_-hbQWMdfSy7evoIjrr0-6" target="_-hbQWMdfSy7evoIjrr0-9">
          <mxGeometry width="50" height="50" relative="1" as="geometry">
            <mxPoint x="670" y="480" as="sourcePoint" />
            <mxPoint x="720" y="430" as="targetPoint" />
          </mxGeometry>
        </mxCell>
        <mxCell id="_-hbQWMdfSy7evoIjrr0-19" value="&lt;br&gt;" style="endArrow=block;endSize=16;endFill=0;html=1;rounded=0;edgeStyle=orthogonalEdgeStyle;" edge="1" parent="1" source="_-hbQWMdfSy7evoIjrr0-5" target="_-hbQWMdfSy7evoIjrr0-4">
          <mxGeometry width="160" relative="1" as="geometry">
            <mxPoint x="600" y="460" as="sourcePoint" />
            <mxPoint x="760" y="460" as="targetPoint" />
          </mxGeometry>
        </mxCell>
        <mxCell id="_-hbQWMdfSy7evoIjrr0-20" value="As a Passenger" style="ellipse;whiteSpace=wrap;html=1;" vertex="1" parent="1">
          <mxGeometry x="300" y="290" width="140" height="70" as="geometry" />
        </mxCell>
        <mxCell id="_-hbQWMdfSy7evoIjrr0-21" value="&lt;br&gt;" style="endArrow=block;endSize=16;endFill=0;html=1;rounded=0;edgeStyle=orthogonalEdgeStyle;" edge="1" parent="1" source="_-hbQWMdfSy7evoIjrr0-20" target="_-hbQWMdfSy7evoIjrr0-4">
          <mxGeometry width="160" relative="1" as="geometry">
            <mxPoint x="540" y="335" as="sourcePoint" />
            <mxPoint x="460" y="270" as="targetPoint" />
          </mxGeometry>
        </mxCell>
        <mxCell id="_-hbQWMdfSy7evoIjrr0-22" value="Book a Seat" style="ellipse;whiteSpace=wrap;html=1;" vertex="1" parent="1">
          <mxGeometry x="300" y="390" width="140" height="70" as="geometry" />
        </mxCell>
        <mxCell id="_-hbQWMdfSy7evoIjrr0-23" value="" style="endArrow=none;html=1;rounded=0;entryX=0;entryY=0.3333333333333333;entryDx=0;entryDy=0;entryPerimeter=0;" edge="1" parent="1" source="_-hbQWMdfSy7evoIjrr0-8" target="_-hbQWMdfSy7evoIjrr0-9">
          <mxGeometry width="50" height="50" relative="1" as="geometry">
            <mxPoint x="690" y="460" as="sourcePoint" />
            <mxPoint x="740" y="410" as="targetPoint" />
          </mxGeometry>
        </mxCell>
        <mxCell id="_-hbQWMdfSy7evoIjrr0-24" value="Login in" style="ellipse;whiteSpace=wrap;html=1;" vertex="1" parent="1">
          <mxGeometry x="530" y="390" width="140" height="70" as="geometry" />
        </mxCell>
        <mxCell id="_-hbQWMdfSy7evoIjrr0-29" value="&amp;lt;&amp;lt;include&amp;gt;&amp;gt;" style="html=1;verticalAlign=bottom;labelBackgroundColor=none;endArrow=open;endFill=0;dashed=1;rounded=0;" edge="1" parent="1" source="_-hbQWMdfSy7evoIjrr0-22" target="_-hbQWMdfSy7evoIjrr0-24">
          <mxGeometry width="160" relative="1" as="geometry">
            <mxPoint x="630" y="440" as="sourcePoint" />
            <mxPoint x="790" y="440" as="targetPoint" />
          </mxGeometry>
        </mxCell>
        <mxCell id="_-hbQWMdfSy7evoIjrr0-30" value="&amp;lt;&amp;lt;include&amp;gt;&amp;gt;" style="html=1;verticalAlign=bottom;labelBackgroundColor=none;endArrow=open;endFill=0;dashed=1;rounded=0;" edge="1" parent="1" source="_-hbQWMdfSy7evoIjrr0-7" target="_-hbQWMdfSy7evoIjrr0-24">
          <mxGeometry width="160" relative="1" as="geometry">
            <mxPoint x="433" y="458" as="sourcePoint" />
            <mxPoint x="557" y="512" as="targetPoint" />
          </mxGeometry>
        </mxCell>
        <mxCell id="_-hbQWMdfSy7evoIjrr0-31" value="&amp;lt;&amp;lt;include&amp;gt;&amp;gt;" style="html=1;verticalAlign=bottom;labelBackgroundColor=none;endArrow=open;endFill=0;dashed=1;rounded=0;" edge="1" parent="1" source="_-hbQWMdfSy7evoIjrr0-6" target="_-hbQWMdfSy7evoIjrr0-24">
          <mxGeometry width="160" relative="1" as="geometry">
            <mxPoint x="787" y="458" as="sourcePoint" />
            <mxPoint x="663" y="512" as="targetPoint" />
          </mxGeometry>
        </mxCell>
        <mxCell id="_-hbQWMdfSy7evoIjrr0-32" value="&amp;lt;&amp;lt;include&amp;gt;&amp;gt;" style="html=1;verticalAlign=bottom;labelBackgroundColor=none;endArrow=open;endFill=0;dashed=1;rounded=0;" edge="1" parent="1" source="_-hbQWMdfSy7evoIjrr0-8" target="_-hbQWMdfSy7evoIjrr0-24">
          <mxGeometry width="160" relative="1" as="geometry">
            <mxPoint x="770" y="535" as="sourcePoint" />
            <mxPoint x="680" y="535" as="targetPoint" />
          </mxGeometry>
        </mxCell>
        <mxCell id="_-hbQWMdfSy7evoIjrr0-33" value="Send Notifications" style="ellipse;whiteSpace=wrap;html=1;" vertex="1" parent="1">
          <mxGeometry x="420" y="500" width="140" height="70" as="geometry" />
        </mxCell>
        <mxCell id="_-hbQWMdfSy7evoIjrr0-34" value="Passenger" style="shape=umlActor;verticalLabelPosition=bottom;verticalAlign=top;html=1;" vertex="1" parent="1">
          <mxGeometry x="190" y="330" width="30" height="60" as="geometry" />
        </mxCell>
        <mxCell id="_-hbQWMdfSy7evoIjrr0-35" value="" style="endArrow=none;html=1;rounded=0;exitX=1;exitY=0.3333333333333333;exitDx=0;exitDy=0;exitPerimeter=0;" edge="1" parent="1" source="_-hbQWMdfSy7evoIjrr0-34" target="_-hbQWMdfSy7evoIjrr0-20">
          <mxGeometry width="50" height="50" relative="1" as="geometry">
            <mxPoint x="560" y="440" as="sourcePoint" />
            <mxPoint x="610" y="390" as="targetPoint" />
          </mxGeometry>
        </mxCell>
        <mxCell id="_-hbQWMdfSy7evoIjrr0-36" value="" style="endArrow=none;html=1;rounded=0;entryX=1;entryY=0.3333333333333333;entryDx=0;entryDy=0;entryPerimeter=0;" edge="1" parent="1" source="_-hbQWMdfSy7evoIjrr0-22" target="_-hbQWMdfSy7evoIjrr0-34">
          <mxGeometry width="50" height="50" relative="1" as="geometry">
            <mxPoint x="560" y="440" as="sourcePoint" />
            <mxPoint x="610" y="390" as="targetPoint" />
          </mxGeometry>
        </mxCell>
        <mxCell id="_-hbQWMdfSy7evoIjrr0-37" value="Web Server" style="shape=umlActor;verticalLabelPosition=bottom;verticalAlign=top;html=1;" vertex="1" parent="1">
          <mxGeometry x="190" y="550" width="30" height="60" as="geometry" />
        </mxCell>
        <mxCell id="_-hbQWMdfSy7evoIjrr0-39" value="" style="endArrow=none;html=1;rounded=0;exitX=1;exitY=0.3333333333333333;exitDx=0;exitDy=0;exitPerimeter=0;" edge="1" parent="1" source="_-hbQWMdfSy7evoIjrr0-37" target="_-hbQWMdfSy7evoIjrr0-33">
          <mxGeometry width="50" height="50" relative="1" as="geometry">
            <mxPoint x="390" y="550" as="sourcePoint" />
            <mxPoint x="440" y="500" as="targetPoint" />
          </mxGeometry>
        </mxCell>
        <mxCell id="_-hbQWMdfSy7evoIjrr0-40" value="To a Passenger" style="ellipse;whiteSpace=wrap;html=1;" vertex="1" parent="1">
          <mxGeometry x="310" y="645" width="140" height="70" as="geometry" />
        </mxCell>
        <mxCell id="_-hbQWMdfSy7evoIjrr0-41" value="To a Driver" style="ellipse;whiteSpace=wrap;html=1;" vertex="1" parent="1">
          <mxGeometry x="530" y="645" width="140" height="70" as="geometry" />
        </mxCell>
        <mxCell id="_-hbQWMdfSy7evoIjrr0-42" value="&lt;br&gt;" style="endArrow=block;endSize=16;endFill=0;html=1;rounded=0;edgeStyle=orthogonalEdgeStyle;" edge="1" parent="1" source="_-hbQWMdfSy7evoIjrr0-41" target="_-hbQWMdfSy7evoIjrr0-33">
          <mxGeometry width="160" relative="1" as="geometry">
            <mxPoint x="770" y="300" as="sourcePoint" />
            <mxPoint x="610" y="235" as="targetPoint" />
          </mxGeometry>
        </mxCell>
        <mxCell id="_-hbQWMdfSy7evoIjrr0-43" value="&lt;br&gt;" style="endArrow=block;endSize=16;endFill=0;html=1;rounded=0;edgeStyle=orthogonalEdgeStyle;" edge="1" parent="1" source="_-hbQWMdfSy7evoIjrr0-40" target="_-hbQWMdfSy7evoIjrr0-33">
          <mxGeometry width="160" relative="1" as="geometry">
            <mxPoint x="610" y="655" as="sourcePoint" />
            <mxPoint x="500" y="580" as="targetPoint" />
          </mxGeometry>
        </mxCell>
      </root>
    </mxGraphModel>
  </diagram>
</mxfile>
